# xmcd
#
# Track frame offsets: 
#        150
#        18023
#        32966
#        50318
#        65408
#        83800
#        101795
#        115426
#        132487
#        148962
#        169475
#        184733
#        197910
#        212674
#        230211
#        247807
#        263233
#        282028
#        299063
#        315802
#
# Disc length: 4437 seconds
#
# Revision: 1
# Processed by: cddbd v1.5.2PL0 Copyright (c) Steve Scherf et al.
# Submitted via: ExactAudioCopy v1.1
#
DISCID=34115314
DTITLE=Various Artist - US Country Charts 2003 Vol.1
DYEAR=2003
DGENRE=Country
TTITLE0=covered from Brooks and Dunn - Only in America
TTITLE1=covered from Brad Paisley - Wrapped Around
TTITLE2=covered from Alan J. and Gerorge St - Designated Drink
TTITLE3=covered from Kenny Chesney - The Good Stuff
TTITLE4=covered from Shania Twain - I'm Gonna Getcha Good
TTITLE5=covered from Faith Hill - When the Lights Go Down
TTITLE6=covered from Tracy Byrd - Ten Rounds With Jose Cuervo
TTITLE7=covered from Tim McGraw - The Cowboy in Me
TTITLE8=covered from Dixie Chicks - Long Time Gone
TTITLE9=covered from Martina McBride - Where Would You Be
TTITLE10=covered from Terri Clark - I Just Wanna Be Mad
TTITLE11=covered from George Strait - She'll Leave You With a Smile
TTITLE12=covered from Mark Wills - 19 Somethin'
TTITLE13=covered from Alan Jackson - Where I Come From
TTITLE14=covered from Blake Shelton - The Baby
TTITLE15=covered from Lee Ann Womack - Does My Ring Burn on Your Finge
TTITLE15=r
TTITLE16=covered from Montgomery Gentry - My Town
TTITLE17=covered from Dixie Chicks - Landslide
TTITLE18=covered from Trisha Y. and Don H. - Inside Out
TTITLE19=covered from Diamond Rio - I Believe
EXTD=
EXTT0=
EXTT1=
EXTT2=
EXTT3=
EXTT4=
EXTT5=
EXTT6=
EXTT7=
EXTT8=
EXTT9=
EXTT10=
EXTT11=
EXTT12=
EXTT13=
EXTT14=
EXTT15=
EXTT16=
EXTT17=
EXTT18=
EXTT19=
PLAYORDER=
